<svg id="Layer_2" data-name="Layer 2" xmlns="http://www.w3.org/2000/svg" xmlns:xlink="http://www.w3.org/1999/xlink" viewBox="0 0 1366 768"><defs><style>.cls-1,.cls-2{stroke:#fff;stroke-miterlimit:10;stroke-width:3px;}.cls-1{fill:url(#linear-gradient);}.cls-2{fill:none;}</style><linearGradient id="linear-gradient" x1="711" y1="951.5" x2="711" y2="138.5" gradientUnits="userSpaceOnUse"><stop offset="0" stop-color="#fff" stop-opacity="0"/><stop offset="0.16" stop-color="#fff" stop-opacity="0.06"/><stop offset="0.44" stop-color="#fff" stop-opacity="0.14"/><stop offset="0.72" stop-color="#fff" stop-opacity="0.18"/><stop offset="1" stop-color="#fff" stop-opacity="0.2"/></linearGradient></defs><title>Artboard 1</title><path class="cls-1" d="M1508.5,138.5l-11,813-1584-27v-118s267-423,514-423a10,10,0,0,0,20,.64c221.58,14.53,259.71,269.45,389,285.56,0,.26,0,.53,0,.8a10,10,0,0,0,20,0c0-.13,0-.26,0-.38,137.69-14.54,290.75-450.95,457.05-478.74a10,10,0,0,0,20-.88c0-.17,0-.34,0-.51C1505.54,189.32,1508.5,138.5,1508.5,138.5Z"/><path class="cls-2" d="M447.5,383.5c0,.22,0,.43,0,.64a10,10,0,1,1,0-.64Z"/><path class="cls-2" d="M856.5,670.5a10,10,0,0,1-20,0c0-.27,0-.54,0-.8a10,10,0,0,1,20,.42C856.5,670.24,856.5,670.37,856.5,670.5Z"/><path class="cls-2" d="M1333.5,190.5a10,10,0,0,1-20,.88,8.51,8.51,0,0,1,0-.88,10,10,0,0,1,20-.51C1333.5,190.16,1333.5,190.33,1333.5,190.5Z"/></svg>