<?xml version="1.0" encoding="utf-8"?>
<!-- Generator: Adobe Illustrator 23.1.0, SVG Export Plug-In . SVG Version: 6.00 Build 0)  -->
<svg version="1.2" baseProfile="tiny" xmlns="http://www.w3.org/2000/svg" xmlns:xlink="http://www.w3.org/1999/xlink" x="0px"
	 y="0px" viewBox="0 0 24 24" xml:space="preserve">
<g id="Layer_1">
	<path d="M22.9,2.6C22.7,2.2,22.4,2,22,2H2C1.6,2,1.3,2.2,1.1,2.6C0.9,2.9,1,3.3,1.2,3.7L9,12.8v3.8l2-1.6v-2.6
		c0-0.2-0.1-0.5-0.2-0.7L4.2,4h15.7l-6.6,7.8c-0.1,0.1-0.1,0.2-0.2,0.3S13,12.3,13,12.5v1l4.7-3.8l3.4-4l1.7-2
		C23,3.3,23.1,2.9,22.9,2.6z M13,19.4l-2-1v-2L9,18v1c0,0.4,0.2,0.7,0.5,0.9l4,2C13.7,22,13.8,22,14,22c0.2,0,0.4,0,0.5-0.2
		c0.3-0.2,0.5-0.5,0.5-0.8v-7.9l-2,1.6V19.4z"/>
</g>
<g id="Layer_2">
	<g>
		<path d="M2.3,20.8L2.3,20.8C2,20.3,2,19.7,2.5,19.4L20.7,4.6c0.4-0.3,1.1-0.3,1.4,0.2l0,0c0.3,0.4,0.3,1.1-0.2,1.4L3.7,20.9
			C3.3,21.3,2.7,21.2,2.3,20.8z"/>
	</g>
</g>
</svg>
