<svg id="Layer_1" data-name="Layer 1" xmlns="http://www.w3.org/2000/svg" xmlns:xlink="http://www.w3.org/1999/xlink" viewBox="0 0 165 72"><defs><style>.cls-1{fill:none;}.cls-2{clip-path:url(#clip-path);}.cls-3{fill:#413d25;}.cls-4{fill:#fff;}.cls-5{fill:#222323;}</style><clipPath id="clip-path"><rect class="cls-1" x="0.06" y="0.42" width="164.67" height="71.53"/></clipPath></defs><title>spinoff_logo</title><g class="cls-2"><path class="cls-3" d="M6.64,68.29v.27a3.16,3.16,0,0,1-3.21,3.3A3.54,3.54,0,1,1,6.28,66.1l-.59.56a2.73,2.73,0,0,0-2.13-1.1A2.71,2.71,0,0,0,.85,68.31a2.77,2.77,0,0,0,2.63,2.77,2.28,2.28,0,0,0,2.23-2H4v-.78H6.64"/><path class="cls-3" d="M9.09,70.61a3.53,3.53,0,0,1-.83-2.29,3.57,3.57,0,0,1,3.56-3.54,3.49,3.49,0,0,1,2.31.87l.86-.86.49.48-.88.86a3.55,3.55,0,0,1-5,5L8.64,72l-.49-.48.94-.91m4.47-4.41a2.63,2.63,0,0,0-1.74-.63A2.75,2.75,0,0,0,9.69,70Zm-3.39,4.3a2.69,2.69,0,0,0,1.65.56A2.76,2.76,0,0,0,14,66.7Z"/></g><path class="cls-3" d="M21.67,71.71h-1l-2-2.87H18.3v2.87h-.85V64.93h1a3.54,3.54,0,0,1,1.79.31,1.89,1.89,0,0,1,.89,1.62,1.85,1.85,0,0,1-1.63,1.9l2.14,2.95M18.3,68.14h.27c.86,0,1.8-.16,1.8-1.24s-1-1.22-1.85-1.22H18.3Z"/><path class="cls-3" d="M27.39,64.93h1.4c2.08,0,3.81,1.09,3.81,3.35s-1.69,3.43-3.84,3.43H27.39V64.93m.84,6h.3c1.73,0,3.22-.65,3.22-2.62s-1.49-2.62-3.22-2.62h-.3Z"/><rect class="cls-3" x="34.68" y="64.93" width="0.85" height="6.79"/><path class="cls-3" d="M44.24,68.29v.27A3.16,3.16,0,0,1,41,71.86a3.54,3.54,0,0,1,.09-7.08,3.56,3.56,0,0,1,2.77,1.32l-.6.56a2.68,2.68,0,0,0-4.84,1.65,2.77,2.77,0,0,0,2.64,2.77,2.28,2.28,0,0,0,2.22-2H41.54v-.78h2.7"/><path class="cls-3" d="M50.12,64.93H51c1.28,0,2.48.33,2.48,1.86a1.47,1.47,0,0,1-.73,1.29h0a1.75,1.75,0,0,1,1.36,1.72c0,1.36-1.16,1.9-2.35,1.9H50.12V64.93m.85,3h.21c.8,0,1.46-.16,1.46-1.13S52,65.68,51.2,65.68H51Zm0,3h.65c.78,0,1.6-.24,1.6-1.2s-1-1.15-1.73-1.15H51Z"/><polyline class="cls-3" points="56.27 64.93 59.91 64.93 59.91 65.7 57.11 65.7 57.11 67.6 59.83 67.6 59.83 68.37 57.11 68.37 57.11 70.94 59.91 70.94 59.91 71.71 56.27 71.71 56.27 64.93"/><path class="cls-3" d="M62.15,64.93h1.4c2.08,0,3.81,1.09,3.81,3.35s-1.7,3.43-3.84,3.43H62.15V64.93m.84,6h.3c1.73,0,3.22-.65,3.22-2.62S65,65.7,63.29,65.7H63Z"/><path class="cls-3" d="M73.68,71.71h-1l-2-2.87h-.35v2.87h-.85V64.93h1a3.54,3.54,0,0,1,1.79.31,1.92,1.92,0,0,1-.74,3.52l2.14,2.95m-3.37-3.57h.27c.86,0,1.8-.16,1.8-1.24s-1-1.22-1.85-1.22h-.22Z"/><polyline class="cls-3" points="75.61 64.93 79.25 64.93 79.25 65.7 76.46 65.7 76.46 67.6 79.17 67.6 79.17 68.37 76.46 68.37 76.46 70.94 79.25 70.94 79.25 71.71 75.61 71.71 75.61 64.93"/><polyline class="cls-3" points="87.25 71.71 86.4 71.71 86.4 65.7 84.79 65.7 84.79 64.93 88.86 64.93 88.86 65.7 87.25 65.7 87.25 71.71"/><rect class="cls-3" x="90.75" y="64.93" width="0.85" height="6.79"/><polyline class="cls-3" points="94.97 70.94 97.04 70.94 97.04 71.71 94.13 71.71 94.13 64.93 94.97 64.93 94.97 70.94"/><path class="cls-3" d="M102.64,64.93h1.41c2.07,0,3.8,1.09,3.8,3.35s-1.69,3.43-3.83,3.43h-1.38V64.93m.85,6h.3c1.72,0,3.22-.65,3.22-2.62s-1.5-2.62-3.22-2.62h-.3Z"/><polyline class="cls-3" points="109.96 64.93 113.61 64.93 113.61 65.7 110.81 65.7 110.81 67.6 113.52 67.6 113.52 68.37 110.81 68.37 110.81 70.94 113.61 70.94 113.61 71.71 109.96 71.71 109.96 64.93"/><polyline class="cls-3" points="117.73 71.71 116.89 71.71 116.89 65.7 115.28 65.7 115.28 64.93 119.35 64.93 119.35 65.7 117.73 65.7 117.73 71.71"/><path class="cls-3" d="M125.06,64.93h1.4c2.08,0,3.81,1.09,3.81,3.35s-1.69,3.43-3.83,3.43h-1.38V64.93m.85,6h.29c1.73,0,3.23-.65,3.23-2.62s-1.5-2.62-3.23-2.62h-.29Z"/><path class="cls-3" d="M133.11,64.93v4c0,1.11.33,2.13,1.63,2.13s1.64-1,1.64-2.13v-4h.85v4.29a2.49,2.49,0,1,1-5,0V64.93h.85"/><g class="cls-2"><path class="cls-3" d="M149.7,68.29v.27a3.16,3.16,0,0,1-3.21,3.3,3.54,3.54,0,1,1,2.85-5.76l-.59.56a2.68,2.68,0,0,0-4.84,1.65,2.77,2.77,0,0,0,2.63,2.77,2.28,2.28,0,0,0,2.23-2H147v-.78h2.69"/><path class="cls-3" d="M152.15,70.61a3.53,3.53,0,0,1-.83-2.29,3.57,3.57,0,0,1,3.56-3.54,3.49,3.49,0,0,1,2.31.87l.86-.86.49.48-.88.86a3.53,3.53,0,0,1-2.78,5.73,3.61,3.61,0,0,1-2.25-.78l-.93.92-.49-.48.94-.91m4.47-4.41a2.63,2.63,0,0,0-1.74-.63A2.75,2.75,0,0,0,152.75,70Zm-3.39,4.3a2.7,2.7,0,0,0,4.35-2.18,2.8,2.8,0,0,0-.5-1.62Z"/></g><path class="cls-3" d="M164.73,71.71h-1l-2-2.87h-.35v2.87h-.85V64.93h1a3.54,3.54,0,0,1,1.79.31,1.92,1.92,0,0,1-.74,3.52l2.14,2.95m-3.37-3.57h.26c.87,0,1.81-.16,1.81-1.24s-1-1.22-1.85-1.22h-.22Z"/><path class="cls-4" d="M111.64,45.74a11.37,11.37,0,1,1-11.37-11.36,11.37,11.37,0,0,1,11.37,11.36"/><path class="cls-5" d="M77.13,11.59A11.18,11.18,0,1,1,66,.42,11.17,11.17,0,0,1,77.13,11.59"/><path class="cls-4" d="M36.23,38.86l-2.42,1.43a4.25,4.25,0,0,0-1.29-1.53,3.44,3.44,0,0,0-3.71.29A2.17,2.17,0,0,0,28,40.79c0,1,.71,1.74,2.15,2.33l2,.81a8.45,8.45,0,0,1,3.53,2.37,5.38,5.38,0,0,1,1.12,3.44,6.06,6.06,0,0,1-1.82,4.51A6.24,6.24,0,0,1,30.4,56a6,6,0,0,1-4.25-1.53,7.05,7.05,0,0,1-2.06-4.3l3-.66a5,5,0,0,0,.71,2.4,3.1,3.1,0,0,0,2.69,1.28,3.14,3.14,0,0,0,2.32-.93,3.52,3.52,0,0,0,.76-3.42,2.67,2.67,0,0,0-.5-.88,4.19,4.19,0,0,0-.88-.76,10,10,0,0,0-1.28-.67L29,45.78Q25,44.07,25,40.77a4.75,4.75,0,0,1,1.71-3.72,6.11,6.11,0,0,1,4.23-1.51,5.92,5.92,0,0,1,5.34,3.32"/><path class="cls-4" d="M44.62,47.67v8h-3V35.92H45a15.32,15.32,0,0,1,3.75.34A5.12,5.12,0,0,1,51,37.57a5.64,5.64,0,0,1,1.7,4.2,5.45,5.45,0,0,1-1.82,4.31A7.2,7.2,0,0,1,46,47.67H44.62m0-2.76h1.12c2.75,0,4.12-1,4.12-3.17s-1.42-3.07-4.25-3.07h-1Z"/><rect class="cls-4" x="57.63" y="35.92" width="2.98" height="19.77"/><polyline class="cls-4" points="67.15 55.69 67.15 34.59 81.58 49.65 81.58 41.3 84.57 41.3 84.57 56.89 70.13 41.85 70.13 55.69 67.15 55.69"/><polyline class="cls-4" points="125.68 38.73 118.79 38.73 118.79 43.49 125.44 43.49 125.44 46.29 118.79 46.29 118.79 55.69 115.81 55.69 115.81 35.92 125.68 35.92 125.68 38.73"/><polyline class="cls-4" points="140.31 38.73 133.43 38.73 133.43 43.49 140.07 43.49 140.07 46.29 133.43 46.29 133.43 55.69 130.44 55.69 130.44 35.92 140.31 35.92 140.31 38.73"/><path class="cls-5" d="M106,45.74a5.68,5.68,0,1,1-5.68-5.68A5.68,5.68,0,0,1,106,45.74"/><path class="cls-5" d="M91.51,28.57a8.45,8.45,0,1,1-8.44-8.45,8.44,8.44,0,0,1,8.44,8.45"/></svg>